<?xml version="1.0" encoding="UTF-8"?>
<!DOCTYPE svg PUBLIC "-//W3C//DTD SVG 1.1//EN" "http://www.w3.org/Graphics/SVG/1.1/DTD/svg11.dtd">
<!-- Creator: CorelDRAW (Versión de evaluación) -->
<svg xmlns="http://www.w3.org/2000/svg" xml:space="preserve" width="210mm" height="297mm" version="1.1" style="shape-rendering:geometricPrecision; text-rendering:geometricPrecision; image-rendering:optimizeQuality; fill-rule:evenodd; clip-rule:evenodd"
viewBox="0 0 21000 29700"
 xmlns:xlink="http://www.w3.org/1999/xlink"
 xmlns:xodm="http://www.corel.com/coreldraw/odm/2003">
 <defs>
  <style type="text/css">
   <![CDATA[
    .str0 {stroke:#FEFEFE;stroke-width:20;stroke-miterlimit:22.9256}
    .fil0 {fill:#6B809B}
    .fil1 {fill:black}
   ]]>
  </style>
 </defs>
 <g id="Capa_x0020_1">
  <metadata id="CorelCorpID_0Corel-Layer"/>
  <g id="_1931393129408">
   <path class="fil0 str0" d="M12262.83 5264.29l-4000 0c-275,0 -500,225 -500,500.02l0 4000c0,275 225,499.98 500,499.98l4000 0c275,0 500,-224.98 500,-499.98l0 -4000c0,-275.02 -225,-500.02 -500,-500.02z"/>
   <path class="fil1" d="M10150.97 6285.65l-98.14 5.76c-541.46,472.36 188.46,1685.86 -283.66,2215.8 -1151.14,521.98 -1086.94,-629.78 -928.12,-928.98 -732.62,-633.4 -755.8,1964.46 799.88,1416.56 907.88,-319.72 572.24,-1645.86 510.04,-2709.14zm367.44 15.9l98.14 5.74c541.44,472.36 -188.44,1685.84 283.64,2215.82 757,630.84 947.16,-197.2 928.14,-478.18 732.62,-633.5 755.84,1513.62 -799.88,965.74 -907.88,-319.72 -572.24,-1645.86 -510.04,-2709.12z"/>
  </g>
 </g>
</svg>
